<svg xmlns="http://www.w3.org/2000/svg" viewBox="0 0 159 17">
<path fill="#beaf87" d="M81 10a3.76 3.76 0 0 1-7.52 0V0h-3.21v10a7 7 0 1 0 14 0V0H81zM8.5 3.25a5.2 5.2 0 0 1 3.59 1.43L14 2a8.49 8.49 0 1 0 0 13l-1.87-2.69a5.2 5.2 0 0 1-3.63 1.44 5.25 5.25 0 0 1 0-10.5zM45.1 11.42L37.19 0h-3.24v17h3.24V5.57L45.1 17h3.25V0H45.1v11.42zM52.67 0v3.25h5.01V17h3.25V3.25h5.01V0H52.67zM142.18 0v3.25h1.76V17h3.25V0h-5.01zM18.29 0v17h11.33v-3.25h-8.09v-3.63h6.49V6.88h-6.49V3.25h8.09V0H18.29zM101.65 5.71A5.71 5.71 0 0 0 95.94 0H88.6v17h3.25v-5.59h2.07L97.79 17h3.86l-4-5.83a5.72 5.72 0 0 0 4-5.46zm-5.71 2.46h-4.09V3.25h4.09a2.46 2.46 0 1 1 0 4.92zM116.51 0l-4.76 6.87L106.99 0h-3.85l6.99 10.1V17h3.25v-6.9L120.37 0h-3.86zM137.58 8.49l.09-.12a5.37 5.37 0 1 0-9.83-3v.2h3.25v-.2a2.13 2.13 0 0 1 2.13-2.12 2.06 2.06 0 0 1 2.13 2.12 4.13 4.13 0 0 1-.7 1.63l-6.9 10h11.15v-3.25h-5zM151 16.68a1 1 0 0 1-.44-.82v-.16s0-.06.08-.06h.56c.05 0 .08 0 .08.06v.13a.54.54 0 0 0 .25.47 1 1 0 0 0 .67.19 1 1 0 0 0 .61-.17.51.51 0 0 0 .23-.43.43.43 0 0 0-.12-.31 1 1 0 0 0-.33-.25c-.14-.08-.35-.17-.63-.29s-.55-.24-.74-.34a1.52 1.52 0 0 1-.45-.38.85.85 0 0 1-.18-.55.91.91 0 0 1 .41-.77 1.93 1.93 0 0 1 1.1-.29 2.4 2.4 0 0 1 .85.14 1.24 1.24 0 0 1 .57.41 1 1 0 0 1 .2.6V14s0 .06-.08.06h-.56c-.06 0-.08 0-.08-.06v-.13a.6.6 0 0 0-.24-.48 1.13 1.13 0 0 0-.67-.18 1 1 0 0 0-.58.15.49.49 0 0 0-.21.42.47.47 0 0 0 .11.31 1 1 0 0 0 .31.23c.14.08.35.17.63.29a8.75 8.75 0 0 1 .79.38 1.38 1.38 0 0 1 .45.37.81.81 0 0 1 .17.52 1 1 0 0 1-.43.82 2 2 0 0 1-1.16.31 2.07 2.07 0 0 1-1.17-.33zM154.65 16.88V12.8s0-.06.08-.06h.58a.1.1 0 0 1 .09 0l1 1.67 1-1.67a.11.11 0 0 1 .1 0h.57s.08 0 .08.06v4.08s0 .06-.08.06h-.57c-.06 0-.08 0-.08-.06V14l-.81 1.29H156.17l-.82-1.3v2.88s0 .06-.07.06h-.58s-.05-.01-.05-.05z" class="cls-1"/>
</svg>
